<svg width="241" height="216" viewBox="0 0 241 216" fill="none" xmlns="http://www.w3.org/2000/svg">
<g opacity="0.1" filter="url(#filter0_d_1_6)">
<path d="M182.916 207.665C171.759 200.831 164.171 198.309 156.812 197.131C145.828 198.898 134.573 197.803 124.136 193.952C113.698 190.101 104.43 183.623 97.226 175.145C90.0222 166.666 85.1263 156.474 83.011 145.551C80.8957 134.629 81.6325 123.345 85.1504 112.79C85.3243 111.798 85.528 110.769 85.7615 109.703C92.1006 80.7996 74.401 64.2704 74.401 64.2704L74.4046 64.2616C66.627 58.0289 56.0401 53.2864 42.2249 49.7262C-2.93891 38.0877 1.09251 1.59657 1.09251 1.59657V0.194733H240.407V194.582C231.033 207.511 218.142 214.113 204.989 214.112C197.517 214.11 189.958 211.979 182.916 207.665Z" fill="url(#paint0_linear_1_6)"/>
</g>
<g opacity="0.1" filter="url(#filter1_d_1_6)">
<path d="M190.95 185.61C181.561 180.777 177.891 177.141 171.347 176.236C164.49 175.217 159.453 175.396 155.17 176.143C144.734 182.744 132.447 185.803 120.134 184.864C107.822 183.926 96.14 179.041 86.8245 170.936C80.7065 166.265 75.9313 160.061 72.9822 152.952C68.9984 144.818 66.993 135.858 67.1296 126.802C67.2662 117.747 69.5409 108.851 73.7682 100.842C81.8311 82.4986 96.9031 73.2956 101.652 69.6729C108.701 64.3017 114.05 57.0094 117.056 48.672C120.062 40.3346 120.596 31.3067 118.596 22.6728C116.596 14.0388 112.145 6.16601 105.779 0C143.622 2.00814 240.809 -2.47955e-05 240.809 -2.47955e-05V171.549L239.53 173.679C228.938 186.083 217.68 189.791 208.219 189.79C202.215 189.765 196.301 188.334 190.95 185.61Z" fill="url(#paint1_linear_1_6)"/>
</g>
<defs>
<filter id="filter0_d_1_6" x="0" y="-2.80527" width="243.407" height="217.917" filterUnits="userSpaceOnUse" color-interpolation-filters="sRGB">
<feFlood flood-opacity="0" result="BackgroundImageFix"/>
<feColorMatrix in="SourceAlpha" type="matrix" values="0 0 0 0 0 0 0 0 0 0 0 0 0 0 0 0 0 0 127 0" result="hardAlpha"/>
<feOffset dx="1" dy="-1"/>
<feGaussianBlur stdDeviation="1"/>
<feComposite in2="hardAlpha" operator="out"/>
<feColorMatrix type="matrix" values="0 0 0 0 0 0 0 0 0 0 0 0 0 0 0 0 0 0 0.3 0"/>
<feBlend mode="normal" in2="BackgroundImageFix" result="effect1_dropShadow_1_6"/>
<feBlend mode="normal" in="SourceGraphic" in2="effect1_dropShadow_1_6" result="shape"/>
</filter>
<filter id="filter1_d_1_6" x="66.123" y="-3.00003" width="177.686" height="193.79" filterUnits="userSpaceOnUse" color-interpolation-filters="sRGB">
<feFlood flood-opacity="0" result="BackgroundImageFix"/>
<feColorMatrix in="SourceAlpha" type="matrix" values="0 0 0 0 0 0 0 0 0 0 0 0 0 0 0 0 0 0 127 0" result="hardAlpha"/>
<feOffset dx="1" dy="-1"/>
<feGaussianBlur stdDeviation="1"/>
<feComposite in2="hardAlpha" operator="out"/>
<feColorMatrix type="matrix" values="0 0 0 0 0 0 0 0 0 0 0 0 0 0 0 0 0 0 0.3 0"/>
<feBlend mode="normal" in2="BackgroundImageFix" result="effect1_dropShadow_1_6"/>
<feBlend mode="normal" in="SourceGraphic" in2="effect1_dropShadow_1_6" result="shape"/>
</filter>
<linearGradient id="paint0_linear_1_6" x1="37.3148" y1="37.0465" x2="233.084" y2="183.71" gradientUnits="userSpaceOnUse">
<stop stop-color="#6D4BE5"/>
<stop offset="1" stop-color="#2B4DFE"/>
</linearGradient>
<linearGradient id="paint1_linear_1_6" x1="93.4688" y1="32.6954" x2="254.701" y2="131.466" gradientUnits="userSpaceOnUse">
<stop stop-color="#6D4BE5"/>
<stop offset="1" stop-color="#2B4DFE"/>
</linearGradient>
</defs>
</svg>
